<svg xmlns="http://www.w3.org/2000/svg" version="1.1" xmlns:xlink="http://www.w3.org/1999/xlink" xmlns:svgjs="http://svgjs.com/svgjs" width="512" height="512" x="0" y="0" viewBox="0 0 64 64" style="enable-background:new 0 0 512 512" xml:space="preserve" class=""><g><path d="M62 3H32.444a3.965 3.965 0 0 0-6.888 0H12.444a3.965 3.965 0 0 0-6.888 0H2a1 1 0 0 0-1 1v4a1 1 0 0 0 1 1h4v2H5a1 1 0 0 0-1 1v50a1 1 0 0 0 1 1h28a1 1 0 0 0 1-1V12a1 1 0 0 0-1-1h-1V9h24v53a1 1 0 0 0 1 1h4a1 1 0 0 0 1-1V9a1 1 0 0 0 1-1V4a1 1 0 0 0-1-1zm-1 2v2H32.442A3.975 3.975 0 0 0 33 5zM8 8.857A3.992 3.992 0 0 0 9 9a3.992 3.992 0 0 0 1-.143V13a1 1 0 0 1-2 0zM12 13h14a2.981 2.981 0 0 0 .78 2H11.22a2.981 2.981 0 0 0 .78-2zm14-2H12V9h14zm-16 6h18v17H10zm19-3a1 1 0 0 1-1-1V8.857a3.568 3.568 0 0 0 2 0V13a1 1 0 0 1-1 1zm0-11a2 2 0 0 1 2 2 1.955 1.955 0 0 1-.671 1.488 2.024 2.024 0 0 1-2.672-.011A1.95 1.95 0 0 1 27 5a2 2 0 0 1 2-2zm-4 2a3.973 3.973 0 0 0 .557 2H12.442A3.975 3.975 0 0 0 13 5zM9 3a2 2 0 0 1 2 2 1.955 1.955 0 0 1-.671 1.488 2.024 2.024 0 0 1-2.672-.011A1.95 1.95 0 0 1 7 5a2 2 0 0 1 2-2zM3 5h2a3.973 3.973 0 0 0 .557 2H3zm3 56V13a3 3 0 0 0 2.035 2.827A.9.9 0 0 0 8 16v19a1 1 0 0 0 1 1h20a1 1 0 0 0 1-1V16a.9.9 0 0 0-.035-.173A3 3 0 0 0 32 13.01V61zm54 0h-2V9h2z" fill="#f39346" data-original="#000000" class=""></path><path d="M29 38H9a1 1 0 0 0-1 1v19a1 1 0 0 0 1 1h20a1 1 0 0 0 1-1V39a1 1 0 0 0-1-1zm-1 19H10V40h18zM36 34h13v2H36zM38 30h8v2h-8zM48 30h2v2h-2zM41 38h13v2H41z" fill="#f39346" data-original="#000000" class=""></path></g></svg>