<svg xmlns="http://www.w3.org/2000/svg" version="1.1" xmlns:xlink="http://www.w3.org/1999/xlink" xmlns:svgjs="http://svgjs.com/svgjs" width="512" height="512" x="0" y="0" viewBox="0 0 512 512" style="enable-background:new 0 0 512 512" xml:space="preserve"><g><path d="m220.648 253.863-10.87-11.734c26.074-24.16 66.355-24.16 92.429 0l-10.871 11.734c-19.941-18.476-50.746-18.476-70.688 0zm0 0" fill="#f39346" data-original="#000000"></path><path d="M400 448h80v-16h-48V0H80v432H32v16h155.055l8 16H0v16h203.055l3.058 6.113A46.582 46.582 0 0 0 248 512h124l24-32h116v-16H400zm-16 16v5.336L364 496H248a30.652 30.652 0 0 1-27.574-17.04l-34.45-68.89a14.275 14.275 0 0 1 7.465-19.629c1.692-.68 3.5-1.03 5.329-1.035a14.215 14.215 0 0 1 12.167 6.883L232.575 432H248V284c0-6.629 5.371-12 12-12s12 5.371 12 12v100h16v-24h16a8 8 0 0 1 8 8v32h16v-24h16a8 8 0 0 1 8 8v32h16v-24h8a8 8 0 0 1 8 8zm-64-256v96h-32v-20c0-15.465-12.535-28-28-28s-28 12.535-28 28v20h-40v-96zm-112-16v-32c0-26.508 21.492-48 48-48 26.512 0 48 21.492 48 48v32zm168 184h-9.367A24.047 24.047 0 0 0 344 360h-17.367A24.047 24.047 0 0 0 304 344h-16v-24h48V192h-16v-32c0-35.348-28.652-64-64-64s-64 28.652-64 64v32h-16v128h56v80.168L224.625 388c-8.438-13.844-26.281-18.586-40.477-10.754-14.195 7.832-19.699 25.461-12.484 39.977l7.39 14.777H128V272h-16v160H96V16h320v416h-16v-32c0-13.254-10.746-24-24-24zm0 0" fill="#f39346" data-original="#000000"></path><path d="M136 176c-13.254 0-24 10.746-24 24v32c0 13.254 10.746 24 24 24s24-10.746 24-24v-32c0-13.254-10.746-24-24-24zm8 56a8 8 0 0 1-16 0v-32a8 8 0 0 1 16 0zm0 0" fill="#f39346" data-original="#000000"></path><path d="M400 32H112v128h16V48h256v312h16zM0 432h16v16H0zM496 432h16v16h-16zm0 0" fill="#f39346" data-original="#000000"></path></g></svg>