<svg xmlns="http://www.w3.org/2000/svg" version="1.1" xmlns:xlink="http://www.w3.org/1999/xlink" xmlns:svgjs="http://svgjs.com/svgjs" width="512" height="512" x="0" y="0" viewBox="0 0 64 64" style="enable-background:new 0 0 512 512" xml:space="preserve" class=""><g><path d="M61.523 57.56h-9.018V25.72c0-11.9-9.007-21.222-20.505-21.222S11.495 13.82 11.495 25.72v31.84H2.477a.97.97 0 1 0 0 1.942h59.047a.97.97 0 1 0-.001-1.942zM13.437 25.72c0-10.811 8.154-19.28 18.563-19.28s18.562 8.468 18.562 19.279v31.84h-1.457V25.255c0-.05-.021-.093-.028-.141-.299-9.7-7.682-17.218-17.077-17.218s-16.778 7.517-17.077 17.218c-.007.048-.028.091-.028.141V57.56h-1.457V25.72zm23.943.535h9.783v9.546H37.38zm-.033-1.971a5.339 5.339 0 0 0-.76-2.214l6.855-6.854c2.044 2.45 3.368 5.577 3.654 9.069h-9.749zM35.29 20.62a5.346 5.346 0 0 0-2.318-1.04V9.889a14.72 14.72 0 0 1 9.132 3.918zm-4.261-1.04a5.345 5.345 0 0 0-2.319 1.04l-6.813-6.813a14.714 14.714 0 0 1 9.132-3.918zm-14.192 6.675h9.782v9.546h-9.782zm3.721-11.04 6.854 6.854a5.325 5.325 0 0 0-.76 2.214h-9.748c.287-3.491 1.611-6.618 3.654-9.068zm-3.721 22.528h9.782V57.56h-9.782zm11.725-.971V24.867c0-1.895 1.542-3.437 3.438-3.437s3.437 1.542 3.437 3.437c0 .069.026.129.039.194-.014.065-.039.125-.039.194V57.56h-6.875zm8.818.971h9.783V57.56H37.38z" fill="#f39346" data-original="#000000"></path><path d="M24.034 27.736h-4.612a.97.97 0 0 0-.971.971v4.612a.97.97 0 0 0 .971.971h4.612a.97.97 0 0 0 .971-.971v-4.612a.97.97 0 0 0-.971-.971zm-.971 4.612h-2.67v-2.669h2.67zM24.034 39.426h-4.612a.97.97 0 0 0-.971.971v14.488a.97.97 0 0 0 .971.971h4.612a.97.97 0 0 0 .971-.971V40.397a.97.97 0 0 0-.971-.971zm-.971 14.487h-2.67V41.368h2.67zM44.578 27.736h-4.613a.97.97 0 0 0-.971.971v4.612a.97.97 0 0 0 .971.971h4.613a.97.97 0 0 0 .971-.971v-4.612a.971.971 0 0 0-.971-.971zm-.972 4.612h-2.67v-2.669h2.67zM44.578 39.426h-4.613a.97.97 0 0 0-.971.971v14.488a.97.97 0 0 0 .971.971h4.613a.97.97 0 0 0 .971-.971V40.397a.97.97 0 0 0-.971-.971zm-.972 14.487h-2.67V41.368h2.67zM32 23.896a.97.97 0 0 0-.971.971v29.859a.97.97 0 1 0 1.942 0V24.867a.97.97 0 0 0-.971-.971z" fill="#f39346" data-original="#000000"></path></g></svg>