<svg xmlns="http://www.w3.org/2000/svg" version="1.1" xmlns:xlink="http://www.w3.org/1999/xlink" xmlns:svgjs="http://svgjs.com/svgjs" width="512" height="512" x="0" y="0" viewBox="0 0 64 64" style="enable-background:new 0 0 512 512" xml:space="preserve" class=""><g><g data-name="02 Door"><path d="m46.243 6.03-24-6a1.009 1.009 0 0 0-.858.182A1 1 0 0 0 21 1v62a1 1 0 0 0 1.243.97l24-6A1 1 0 0 0 47 57V7a1 1 0 0 0-.757-.97zM45 56.219l-22 5.5V2.281l22 5.5zM18 8a1 1 0 0 0 0-2h-8a1 1 0 0 0-1 1v50a1 1 0 0 0 1 1h4a1 1 0 0 0 1-1V12h3a1 1 0 0 0 0-2h-4a1 1 0 0 0-1 1v45h-2V8zM54 6h-4a1 1 0 0 0 0 2h3v48h-2V11a1 1 0 0 0-2 0v46a1 1 0 0 0 1 1h4a1 1 0 0 0 1-1V7a1 1 0 0 0-1-1z" fill="#f39346" data-original="#000000" class=""></path><path d="M28 35a3 3 0 1 0-3-3 3 3 0 0 0 3 3zm0-4a1 1 0 1 1-1 1 1 1 0 0 1 1-1z" fill="#f39346" data-original="#000000" class=""></path></g></g></svg>