<svg xmlns="http://www.w3.org/2000/svg" version="1.1" xmlns:xlink="http://www.w3.org/1999/xlink" xmlns:svgjs="http://svgjs.com/svgjs" width="512" height="512" x="0" y="0" viewBox="0 0 64 64" style="enable-background:new 0 0 512 512" xml:space="preserve" class=""><g><path d="M50 8a9 9 0 0 1 9 9 1 1 0 0 0 2 0A11 11 0 0 0 50 6a1 1 0 0 0 0 2Z" fill="#f39346" data-original="#000000" class=""></path><path d="M50 12a5 5 0 0 1 5 5 1 1 0 0 0 2 0 7 7 0 0 0-7-7 1 1 0 0 0 0 2Z" fill="#f39346" data-original="#000000" class=""></path><path d="M50 16a1 1 0 0 1 1 1 1 1 0 0 0 2 0 3 3 0 0 0-3-3 1 1 0 0 0 0 2ZM20 28h-1a1 1 0 0 0 0 2v9a1 1 0 0 0 0 2h1a1 1 0 0 0 1-1V29a1 1 0 0 0-1-1ZM30 41h1a1 1 0 0 0 0-2v-9a1 1 0 0 0 0-2h-1a1 1 0 0 0-1 1v11a1 1 0 0 0 1 1Z" fill="#f39346" data-original="#000000" class=""></path><path d="M60 58H47V7a1 1 0 0 0-1-1H29V5a1 1 0 0 0-1-1h-6a1 1 0 0 0-1 1v1H4a1 1 0 0 0-1 1v52a1 1 0 0 0 1 1h56a1 1 0 0 0 0-2ZM23 6h4v4h-4ZM6 11v47H5V8h16v2H7c-.42.13-.89.12-1 1Zm2 1.24 14 3.09v37.72L8 56.71ZM11 58l12.3-3.21a1 1 0 0 0 .75-1V14.53a1 1 0 0 0-.78-1l-7-1.55h17.55l-7 1.55a1 1 0 0 0-.78 1v39.29a1 1 0 0 0 .75 1L39.05 58Zm31-1.29-14-3.66V15.33l14-3.09ZM45 58h-1V11a1.09 1.09 0 0 0-1-1H29V8h16Z" fill="#f39346" data-original="#000000" class=""></path><path d="M54.5 56a5.5 5.5 0 1 0-5.5-5.5 5.51 5.51 0 0 0 5.5 5.5Zm0-9a3.48 3.48 0 0 1 3.07 5.15l-4.72-4.72A3.52 3.52 0 0 1 54.5 47Zm-3.07 1.85 4.72 4.72a3.48 3.48 0 0 1-4.72-4.72Z" fill="#f39346" data-original="#000000" class=""></path><circle cx="54" cy="38.04" r="1" fill="#f39346" data-original="#000000" class=""></circle><circle cx="50" cy="30.04" r="1" fill="#f39346" data-original="#000000" class=""></circle><circle cx="54" cy="30.04" r="1" fill="#f39346" data-original="#000000" class=""></circle><circle cx="54" cy="42.04" r="1" fill="#f39346" data-original="#000000" class=""></circle><circle cx="54" cy="34.04" r="1" fill="#f39346" data-original="#000000" class=""></circle></g></svg>