<svg xmlns="http://www.w3.org/2000/svg" version="1.1" xmlns:xlink="http://www.w3.org/1999/xlink" xmlns:svgjs="http://svgjs.com/svgjs" width="512" height="512" x="0" y="0" viewBox="0 0 682.669 682" style="enable-background:new 0 0 512 512" xml:space="preserve" class=""><g><path d="M479.996 554.973H160.012c-5.895 0-10.672-4.774-10.672-10.664s4.777-10.668 10.672-10.668h319.984c5.89 0 10.664 4.777 10.664 10.668s-4.773 10.664-10.664 10.664zm0 0" fill="#f39346" data-original="#000000" class=""></path><path d="M533.324 640.309H106.676c-11.781 0-21.332-9.551-21.332-21.332v-32.004c.008-2.309.754-4.551 2.136-6.399l23.25-31.039c3.536-4.71 10.22-5.668 14.934-2.133 4.715 3.535 5.664 10.22 2.129 14.934l-21.117 28.187v28.454h426.648v-28.454l-21.117-28.195a10.67 10.67 0 0 1 7.258-16.992 10.675 10.675 0 0 1 9.808 4.187l23.254 31.051a10.724 10.724 0 0 1 2.13 6.399v32.004c0 11.78-9.552 21.332-21.333 21.332zm0 0" fill="#f39346" data-original="#000000" class=""></path><path d="M160.012 597.637h-64c-5.89 0-10.668-4.774-10.668-10.664s4.777-10.668 10.668-10.668h64c5.886 0 10.66 4.777 10.66 10.668s-4.774 10.664-10.66 10.664zM543.992 597.637H202.676c-5.895 0-10.672-4.774-10.672-10.664s4.777-10.668 10.672-10.668h341.316c5.89 0 10.664 4.777 10.664 10.668s-4.773 10.664-10.664 10.664zM479.996 554.973H160.012c-5.895 0-10.672-4.774-10.672-10.664v-373.32C149.34 76.733 225.75.331 320.004.331S490.66 76.734 490.66 170.988v373.32c0 5.891-4.773 10.665-10.664 10.665zM170.672 533.64h298.656V170.988c0-82.472-66.851-149.324-149.324-149.324S170.672 88.516 170.672 170.988zm0 0" fill="#f39346" data-original="#000000" class=""></path><path d="M10.68 597.637c-5.887 0-10.664-4.774-10.664-10.664V128.324c0-3.344 1.574-6.492 4.242-8.504a10.659 10.659 0 0 1 9.347-1.742l149.325 42.664a10.652 10.652 0 0 1 7.773 7.637c1 3.773-.148 7.793-2.984 10.476a10.664 10.664 0 0 1-10.633 2.383l-135.738-38.77v430.36l135.738-38.773a10.667 10.667 0 1 1 5.844 20.504L13.605 597.223c-.953.277-1.933.422-2.925.414zm0 0" fill="#f39346" data-original="#000000" class=""></path><path d="M479.996 181.66H160.012c-5.895 0-10.672-4.777-10.672-10.672 0-5.886 4.777-10.66 10.672-10.66h319.984c5.89 0 10.664 4.774 10.664 10.66 0 5.895-4.773 10.672-10.664 10.672zm0 0" fill="#f39346" data-original="#000000" class=""></path><path d="M320.004 554.973c-5.895 0-10.668-4.774-10.668-10.664V10.996c0-5.887 4.773-10.664 10.668-10.664 5.887 0 10.664 4.777 10.664 10.664V544.31c0 5.89-4.777 10.664-10.664 10.664zm0 0" fill="#f39346" data-original="#000000" class=""></path><path d="M320.004 181.66a10.68 10.68 0 0 1-7.543-3.125L199.398 65.473a10.666 10.666 0 0 1-2.906-10.375 10.656 10.656 0 0 1 7.617-7.618 10.661 10.661 0 0 1 10.371 2.91l105.524 105.516 105.52-105.515c4.187-4.043 10.835-3.985 14.953.125 4.113 4.117 4.171 10.765.128 14.957L327.543 178.535a10.672 10.672 0 0 1-7.54 3.125zM85.344 576.305c-5.887 0-10.668-4.774-10.668-10.664V149.656c0-5.886 4.781-10.664 10.668-10.664 5.894 0 10.668 4.778 10.668 10.664v415.985c0 5.89-4.774 10.664-10.668 10.664zm0 0" fill="#f39346" data-original="#000000" class=""></path><path d="M160.012 298.988c-.516 0-1.024-.035-1.532-.11L9.156 277.548c-5.836-.84-9.883-6.242-9.047-12.074.84-5.836 6.246-9.883 12.075-9.047l149.332 21.332a10.67 10.67 0 0 1 9.132 11.312 10.672 10.672 0 0 1-10.636 9.918zM10.68 458.98a10.678 10.678 0 0 1-10.64-9.914 10.674 10.674 0 0 1 9.136-11.316l149.332-21.332c5.828-.832 11.234 3.215 12.074 9.05.832 5.829-3.215 11.235-9.047 12.075L12.207 458.875c-.508.07-1.016.105-1.527.105zM629.324 597.637a10.14 10.14 0 0 1-2.922-.414l-149.328-42.664a10.652 10.652 0 0 1-7.773-7.637 10.66 10.66 0 0 1 2.988-10.477 10.66 10.66 0 0 1 10.629-2.39l135.742 38.773v-430.36l-135.742 38.77a10.66 10.66 0 0 1-13.617-12.86 10.646 10.646 0 0 1 7.773-7.636l149.328-42.664a10.67 10.67 0 0 1 13.59 10.246v458.649c0 5.89-4.777 10.664-10.668 10.664zm0 0" fill="#f39346" data-original="#000000" class=""></path><path d="M554.656 576.305c-5.886 0-10.664-4.774-10.664-10.664V149.656c0-5.886 4.778-10.664 10.664-10.664 5.895 0 10.668 4.778 10.668 10.664v415.985c0 5.89-4.773 10.664-10.668 10.664zm0 0" fill="#f39346" data-original="#000000" class=""></path><path d="M479.996 298.988a10.67 10.67 0 0 1-10.637-9.918c-.398-5.582 3.594-10.52 9.133-11.312l149.328-21.332a10.655 10.655 0 0 1 9.899 3.969c2.36 3 2.937 7.023 1.515 10.562a10.665 10.665 0 0 1-8.382 6.59L481.52 298.879c-.5.074-1.016.11-1.524.11zM629.324 458.98a11.01 11.01 0 0 1-1.523-.105l-149.332-21.332c-5.828-.84-9.88-6.246-9.043-12.074.836-5.836 6.242-9.883 12.074-9.051l149.324 21.332a10.674 10.674 0 0 1 9.137 11.316c-.395 5.582-5.04 9.91-10.637 9.914zm0 0" fill="#f39346" data-original="#000000" class=""></path></g></svg>