<svg xmlns="http://www.w3.org/2000/svg" version="1.1" xmlns:xlink="http://www.w3.org/1999/xlink" xmlns:svgjs="http://svgjs.com/svgjs" width="512" height="512" x="0" y="0" viewBox="0 0 64 64" style="enable-background:new 0 0 512 512" xml:space="preserve" class=""><g><g data-name="door and fix window"><path d="M63 0H1a1 1 0 0 0-1 1v16a1 1 0 0 0 1 1h62a1 1 0 0 0 1-1V1a1 1 0 0 0-1-1zm-1 16H2V2h60zM63 20H1a1 1 0 0 0-1 1v42a1 1 0 0 0 1 1h62a1 1 0 0 0 1-1V21a1 1 0 0 0-1-1zM2 22h14v40H2zm16 0h28v40H18zm44 40H48V22h14z" fill="#f39346" data-original="#000000" class=""></path><path d="M37 38h2v2h-2zM40 38h2v2h-2zM37 41h2v2h-2zM40 41h2v2h-2zM37 44h2v2h-2zM40 44h2v2h-2z" fill="#f39346" data-original="#000000" class=""></path><path d="M44 23H20a1 1 0 0 0-1 1v36a1 1 0 0 0 1 1h24a1 1 0 0 0 1-1V24a1 1 0 0 0-1-1zm-1 36H21V25h22zM4 15h56a1 1 0 0 0 1-1V4a1 1 0 0 0-1-1H4a1 1 0 0 0-1 1v10a1 1 0 0 0 1 1zM5 5h54v8H5zM14 23H4a1 1 0 0 0-1 1v36a1 1 0 0 0 1 1h10a1 1 0 0 0 1-1V24a1 1 0 0 0-1-1zm-1 36H5V25h8zM50 61h10a1 1 0 0 0 1-1V24a1 1 0 0 0-1-1H50a1 1 0 0 0-1 1v36a1 1 0 0 0 1 1zm1-36h8v34h-8z" fill="#f39346" data-original="#000000" class=""></path></g></g></svg>