<svg xmlns="http://www.w3.org/2000/svg" version="1.1" xmlns:xlink="http://www.w3.org/1999/xlink" xmlns:svgjs="http://svgjs.com/svgjs" width="512" height="512" x="0" y="0" viewBox="0 0 64 64" style="enable-background:new 0 0 512 512" xml:space="preserve" class=""><g><path d="M63 5V3c0-1.103-.897-2-2-2H3c-1.103 0-2 .897-2 2v2c0 1.103.897 2 2 2v54H1v2h62v-2h-2V7c1.103 0 2-.897 2-2zm-2 0H43V3h18zM23 40h-1c-.552 0-1-.449-1-1V29c0-.551.448-1 1-1h1zm2-29h14v50H25zm16 17h1c.552 0 1 .449 1 1v10c0 .551-.448 1-1 1h-1zM40 9H24c-.552 0-1-.449-1-1V3h18v5c0 .551-.448 1-1 1zM3 3h18v2H3zm2 4h16v1c0 1.302.839 2.402 2 2.816V26h-1c-1.654 0-3 1.346-3 3v10c0 1.654 1.346 3 3 3h1v19H5zm54 54H41V42h1c1.654 0 3-1.346 3-3V29c0-1.654-1.346-3-3-3h-1V10.816A2.996 2.996 0 0 0 43 8V7h16z" fill="#f39346" data-original="#000000"></path><path d="M33 5h2v2h-2zM25 5h2v2h-2zM29 5h2v2h-2zM37 5h2v2h-2zM36.243 17.243a6.008 6.008 0 0 1-8.486 0l-1.414 1.414c1.56 1.56 3.608 2.339 5.657 2.339s4.098-.78 5.657-2.339zM34.828 15.828l-1.414-1.414c-.756.756-2.072.756-2.828 0l-1.414 1.414C29.927 16.584 30.932 17 32 17s2.073-.416 2.828-1.172zM55 17h2v2h-2zM55 13h2v2h-2zM55 9h2v2h-2zM7 57h2v2H7zM7 53h2v2H7zM7 49h2v2H7z" fill="#f39346" data-original="#000000"></path></g></svg>