<svg xmlns="http://www.w3.org/2000/svg" version="1.1" xmlns:xlink="http://www.w3.org/1999/xlink" xmlns:svgjs="http://svgjs.com/svgjs" width="512" height="512" x="0" y="0" viewBox="0 0 512 512" style="enable-background:new 0 0 512 512" xml:space="preserve" class=""><g><path d="M78.71 448.179a10.073 10.073 0 0 0-7.069-2.93c-2.64 0-5.209 1.07-7.079 2.93-1.86 1.86-2.93 4.439-2.93 7.069s1.07 5.209 2.93 7.069a10.097 10.097 0 0 0 7.079 2.93c2.63 0 5.199-1.07 7.069-2.93 1.86-1.86 2.919-4.439 2.919-7.069s-1.059-5.209-2.919-7.069zM160.087 474.875c-1.86-1.86-4.439-2.93-7.069-2.93s-5.209 1.07-7.069 2.93a10.056 10.056 0 0 0-2.93 7.069c0 2.63 1.07 5.209 2.93 7.069s4.439 2.93 7.069 2.93 5.209-1.07 7.069-2.93a10.073 10.073 0 0 0 2.93-7.069 10.062 10.062 0 0 0-2.93-7.069z" fill="#f39346" data-original="#000000" class=""></path><path d="M511.458 339.668a35.359 35.359 0 0 0-16.812-24.52 35.382 35.382 0 0 0-43.162 5.408l-74.123 74.2c-7.254 7.262-16.901 11.26-27.165 11.26h-9.318c.462-10.219-4.11-19.995-12.805-26.35l-75.763-55.369c-26.067-19.05-59.846-24.126-90.347-13.588l-9.969 3.427a116.45 116.45 0 0 1-3.3-32.087c.618-17.222 4.928-33.741 12.809-49.096l63.854-124.403h136.996l62.972 124.62a117.29 117.29 0 0 1 6.418 15.31c1.769 5.231 7.441 8.039 12.673 6.271 5.231-1.768 8.039-7.442 6.271-12.673a137.503 137.503 0 0 0-7.515-17.925L379.666 98.481l31.433-64.245c4.666-9.538 2.672-20.389-5.082-27.643-7.754-7.254-18.714-8.523-27.92-3.232l-16.931 9.73a11.035 11.035 0 0 1-11.883-.583l-8.886-6.337a31.002 31.002 0 0 0-37.967 1.516l-2.785 2.343a10.959 10.959 0 0 1-13.738.353l-5.362-4.059c-11.546-8.744-27.393-8.386-38.536.87l-5.131 4.263c-3.521 2.925-8.557 3.358-12.525 1.078l-15.31-8.799c-9.111-5.235-20.362-3.905-28 3.308-7.639 7.214-9.609 18.371-4.905 27.766l31.9 63.69-64.327 125.326c-9.231 17.985-14.279 37.334-15.003 57.51a136.41 136.41 0 0 0 4.309 39.328l-34.084 11.717-1.06-6.008c-1.486-8.428-6.165-15.77-13.174-20.68-7.01-4.908-15.512-6.791-23.937-5.307l-52.458 9.25c-5.438.959-9.07 6.145-8.111 11.582l32.183 182.52c.855 4.851 5.074 8.265 9.834 8.264.576 0 1.161-.05 1.748-.153l52.457-9.25c8.428-1.486 15.77-6.165 20.68-13.174 4.908-7.01 6.792-15.51 5.307-23.937l-19.955-113.172 66.03-22.699a78.606 78.606 0 0 1 72.032 10.827l75.763 55.369c6.098 4.457 4.638 10.726 4.045 12.541-.593 1.815-3.114 7.739-10.666 7.739-1.727 0-3.456-.407-5.002-1.177l-69.267-34.5a28.924 28.924 0 0 0-12.831-3.018h-18.438c-5.522 0-9.998 4.476-9.998 9.998 0 5.522 4.476 9.998 9.998 9.998h18.438c1.352 0 2.706.318 3.915.921l69.267 34.5a31.37 31.37 0 0 0 13.918 3.274c9.302 0 17.629-3.873 23.373-10.416.817.216 1.67.342 2.554.342h14.617c15.609 0 30.281-6.082 41.312-17.124l74.123-74.2a15.404 15.404 0 0 1 18.792-2.355 15.4 15.4 0 0 1 7.32 10.676 15.39 15.39 0 0 1-3.393 12.491l-60.469 72.028c-23.697 28.226-58.426 44.415-95.28 44.415H190.73c-5.522 0-9.998 4.476-9.998 9.998s4.476 9.998 9.998 9.998h141.869c42.779 0 83.09-18.791 110.595-51.555l60.469-72.028a35.355 35.355 0 0 0 7.795-28.691zM194.018 25.852c-.999-1.997-.141-3.425.756-4.271.896-.847 2.372-1.622 4.307-.51l15.31 8.799c11.178 6.424 25.351 5.205 35.267-3.035l5.131-4.263a10.968 10.968 0 0 1 13.686-.309l5.362 4.06c11.621 8.798 27.527 8.39 38.682-.992l2.785-2.343a11.011 11.011 0 0 1 13.484-.539l8.886 6.336c9.841 7.02 22.974 7.665 33.458 1.641l16.931-9.73c1.925-1.107 3.399-.341 4.294.497.896.838 1.759 2.257.782 4.252l-30.877 63.109H225.423l-31.405-62.702zm-91.307 443.106c1.152 6.538-3.229 12.794-9.765 13.947l-42.611 7.514L21.623 327.59l42.611-7.514c6.543-1.155 12.793 3.228 13.947 9.765l24.53 139.117z" fill="#f39346" data-original="#000000" class=""></path><path d="M447.591 273c-5.519.135-9.882 4.735-9.746 10.255v.033c.136 5.435 4.582 9.719 9.988 9.719.085 0 .171-.001.256-.003 5.52-.138 9.882-4.754 9.745-10.274-.139-5.519-4.726-9.881-10.243-9.73zM293.23 230.523c-11.932 0-21.64-8.396-21.64-18.715s9.707-18.714 21.64-18.714 21.639 8.395 21.639 18.714c0 5.522 4.476 9.998 9.998 9.998s9.998-4.476 9.998-9.998c0-18.141-13.494-33.401-31.638-37.575v-4.181c0-5.522-4.476-9.998-9.998-9.998s-9.998 4.476-9.998 9.998v4.181c-18.144 4.174-31.638 19.434-31.638 37.575 0 21.346 18.678 38.712 41.636 38.712 11.932 0 21.639 8.395 21.639 18.714 0 10.319-9.707 18.714-21.639 18.714s-21.64-8.395-21.64-18.714c0-5.522-4.476-9.998-9.998-9.998s-9.998 4.476-9.998 9.998c0 18.141 13.494 33.401 31.638 37.575v3.082c0 5.522 4.476 9.998 9.998 9.998s9.998-4.476 9.998-9.998v-3.082c18.144-4.174 31.638-19.434 31.638-37.575.001-21.346-18.677-38.711-41.635-38.711z" fill="#f39346" data-original="#000000" class=""></path></g></svg>