<svg xmlns="http://www.w3.org/2000/svg" version="1.1" xmlns:xlink="http://www.w3.org/1999/xlink" xmlns:svgjs="http://svgjs.com/svgjs" width="512" height="512" x="0" y="0" viewBox="0 0 64 64" style="enable-background:new 0 0 512 512" xml:space="preserve" class=""><g><path d="M62 1H24a1 1 0 0 0-1 1v29.2l-2.606-1.117A1 1 0 0 0 20 30H8a7 7 0 0 0-2.691 13.46L2.034 55.742A.956.956 0 0 0 2 56v3a4 4 0 0 0 4 4h6a4 4 0 0 0 4-4v-3a1 1 0 0 0-.445-.832 4.237 4.237 0 0 1-1.77-4.456L14.18 49H15a4.529 4.529 0 0 0 4.479-3.794L19.68 44H20a1 1 0 0 0 .394-.082L23 42.8V62a1 1 0 0 0 1 1h38a1 1 0 0 0 1-1V2a1 1 0 0 0-1-1ZM26 34.659v4.682l-5 2.143v-8.968ZM3 37a5.009 5.009 0 0 1 4-4.9V37h2v-5h2v5h2v-5h2v5h2v-5h2v10H8a5.006 5.006 0 0 1-5-5Zm5 7h5.281l-1.445 6.262A6.226 6.226 0 0 0 12.674 55H4.3l2.946-11.042A7.219 7.219 0 0 0 8 44Zm6 15a2 2 0 0 1-2 2H6a2 2 0 0 1-2-2v-2h10Zm3.506-14.124A2.535 2.535 0 0 1 15 47h-.358l.692-3h2.318ZM25 41.945l2-.857V61h-2ZM57 61H29V41h1a4 4 0 0 0 3.858-3H40v-2h-6.142A4 4 0 0 0 30 33h-1V7h28ZM28 35h2a2 2 0 0 1 0 4h-2Zm33 26h-2V6a1 1 0 0 0-1-1H28a1 1 0 0 0-1 1v26.912l-2-.857V3h36Z" fill="#f39346" data-original="#000000" class=""></path><path d="M34 31h18a1 1 0 0 0 1-1v-9a10 10 0 0 0-20 0v9a1 1 0 0 0 1 1Zm1-9h7v7h-7Zm9 7v-7h7v7Zm6.931-9H44v-6.931A8.008 8.008 0 0 1 50.931 20ZM42 13.069V20h-6.931A8.008 8.008 0 0 1 42 13.069ZM52 42H34a1 1 0 0 0-1 1v14a1 1 0 0 0 1 1h18a1 1 0 0 0 1-1V43a1 1 0 0 0-1-1Zm-1 7h-7v-5h7Zm-9-5v5h-7v-5Zm-7 7h7v5h-7Zm9 5v-5h7v5Z" fill="#f39346" data-original="#000000" class=""></path></g></svg>