<svg xmlns="http://www.w3.org/2000/svg" version="1.1" xmlns:xlink="http://www.w3.org/1999/xlink" xmlns:svgjs="http://svgjs.com/svgjs" width="512" height="512" x="0" y="0" viewBox="0 0 64 64" style="enable-background:new 0 0 512 512" xml:space="preserve" class=""><g><path d="m60.85 50.314-1.873-5.628a8.587 8.587 0 0 0-12.094-4.877l-9.225-9.225.543-.542 2.121 2.121a1 1 0 0 0 1.414 0l1.414-1.414a1 1 0 0 0 0-1.415l-.707-.707 1.415-1.414.707.707a1 1 0 0 0 1.414 0l14.142-14.142a3 3 0 0 0 0-4.242l-5.656-5.657a3 3 0 0 0-4.243 0L36.08 18.021a1 1 0 0 0 0 1.414l.707.707-1.414 1.415-.708-.708a1.03 1.03 0 0 0-1.414 0l-1.414 1.415a1 1 0 0 0 0 1.414l2.121 2.122-.542.543-9.225-9.225a8.64 8.64 0 0 0-1.534-10.026 8.781 8.781 0 0 0-3.351-2.071l-5.619-1.87a2.987 2.987 0 0 0-3.074.732l-.54.54a1 1 0 0 0 0 1.414l5.66 5.65a1 1 0 0 1 0 1.416l-2.833 2.83a1.028 1.028 0 0 1-1.415 0l-5.65-5.66a1 1 0 0 0-.705-.293 1 1 0 0 0-.707.293l-.54.54a2.987 2.987 0 0 0-.732 3.073l1.873 5.628a8.77 8.77 0 0 0 2.07 3.345 8.639 8.639 0 0 0 10.023 1.532l9.225 9.225-15.4 15.4-2.542-.128a.993.993 0 0 0-.876.431l-4.348 6.314a1 1 0 0 0 .117 1.274l4 4a1 1 0 0 0 1.281.112l6.269-4.393a1 1 0 0 0 .426-.856l-.094-2.5 15.409-15.412 9.225 9.225a8.586 8.586 0 0 0 4.885 12.1l5.619 1.87a2.987 2.987 0 0 0 3.074-.732l.54-.54a1 1 0 0 0 0-1.414l-5.658-5.649a1 1 0 0 1 0-1.417l2.83-2.83a1.027 1.027 0 0 1 1.415 0l5.65 5.66a1 1 0 0 0 1.415 0l.54-.54a2.992 2.992 0 0 0 .731-3.077zM45.272 25.8l-1.414-1.414 10.608-10.608a1.023 1.023 0 0 1 1.413 0l.707.707zm7.779-20.507 5.656 5.657a1 1 0 0 1 0 1.414l-.707.707-.707-.707a3.071 3.071 0 0 0-4.242 0L42.444 22.971l-1.415-1.415L51.636 10.95a3 3 0 0 0 0-4.243L50.929 6l.707-.707a1 1 0 0 1 1.415 0zm-3.536 2.121.707.707a1 1 0 0 1 0 1.415L39.615 20.142 38.2 18.728zM33.958 22.97l.708.708a1 1 0 0 0 1.414 0l2.12-2.122 4.244 4.244-2.122 2.12a1 1 0 0 0 0 1.414l.707.708-7.071-7.071zm-17.223-.87a6.618 6.618 0 0 1-8.228-.858 6.741 6.741 0 0 1-1.588-2.569l-1.87-5.62a.993.993 0 0 1 .1-.84l4.925 4.933a3.075 3.075 0 0 0 4.244 0l2.83-2.83a3 3 0 0 0 0-4.245l-4.934-4.923a1 1 0 0 1 .84-.1l5.613 1.868a6.752 6.752 0 0 1 2.575 1.588 6.62 6.62 0 0 1 .859 8.23 1 1 0 0 0 .132 1.252l3.424 3.424a4.9 4.9 0 0 0-4.246 4.246l-3.424-3.424a1 1 0 0 0-1.252-.132zm7.485 6.365a3 3 0 0 1 4.242-4.242L32 27.756 27.756 32zm-10.768 23.5a1 1 0 0 0-.292.745l.09 2.394L8.114 58.7 5.3 55.881l3.558-5.167 2.425.125a1 1 0 0 0 .759-.291l23.331-23.335 1.414 1.415zM36.244 32l3.536 3.536a3 3 0 0 1-4.243 4.242L32 36.244zm22.608 19.786-4.924-4.932a3.074 3.074 0 0 0-4.245 0l-2.83 2.83a3.007 3.007 0 0 0 0 4.245l4.931 4.924a.991.991 0 0 1-.84.1l-5.611-1.868a6.582 6.582 0 0 1-3.433-9.82 1 1 0 0 0-.131-1.252l-3.425-3.424a4.906 4.906 0 0 0 4.248-4.245l3.423 3.423a1 1 0 0 0 1.251.132 6.584 6.584 0 0 1 9.817 3.427l1.87 5.619a.994.994 0 0 1-.101.841z" fill="#f39346" data-original="#000000" class=""></path></g></svg>