<svg xmlns="http://www.w3.org/2000/svg" version="1.1" xmlns:xlink="http://www.w3.org/1999/xlink" xmlns:svgjs="http://svgjs.com/svgjs" width="512" height="512" x="0" y="0" viewBox="0 0 64 64" style="enable-background:new 0 0 512 512" xml:space="preserve" class=""><g><g data-name="fix window"><path d="M63 0H1a1 1 0 0 0-1 1v62a1 1 0 0 0 1 1h62a1 1 0 0 0 1-1V1a1 1 0 0 0-1-1Zm-1 62H2V2h60Z" fill="#f39346" data-original="#000000" class=""></path><path d="M6 31h24a1 1 0 0 0 1-1V6a1 1 0 0 0-1-1H6a1 1 0 0 0-1 1v24a1 1 0 0 0 1 1Zm8.414-2 9.293-9.293-1.414-1.414L11.586 29H8.414L29 8.414V29Zm7.172-22L11.293 17.293l1.414 1.414L24.414 7h3.172L7 27.586V7ZM34 31h24a1 1 0 0 0 1-1V6a1 1 0 0 0-1-1H34a1 1 0 0 0-1 1v24a1 1 0 0 0 1 1Zm1-24h22v22H35ZM6 59h24a1 1 0 0 0 1-1V34a1 1 0 0 0-1-1H6a1 1 0 0 0-1 1v24a1 1 0 0 0 1 1Zm1-24h22v22H7ZM34 59h24a1 1 0 0 0 1-1V34a1 1 0 0 0-1-1H34a1 1 0 0 0-1 1v24a1 1 0 0 0 1 1Zm8.414-2 9.293-9.293-1.414-1.414L39.586 57h-3.172L57 36.414V57Zm7.172-22L39.293 45.293l1.414 1.414L52.414 35h3.172L35 55.586V35Z" fill="#f39346" data-original="#000000" class=""></path></g></g></svg>