<svg xmlns="http://www.w3.org/2000/svg" version="1.1" xmlns:xlink="http://www.w3.org/1999/xlink" xmlns:svgjs="http://svgjs.com/svgjs" width="512" height="512" x="0" y="0" viewBox="0 0 344.576 344.576" style="enable-background:new 0 0 512 512" xml:space="preserve"><g><path d="M172.544 23.552c-60.416 0-109.568 49.152-109.568 109.568v184.32c0 3.072 2.048 5.12 5.12 5.12h208.896c3.072 0 5.12-2.048 5.12-5.12V133.12c0-60.416-49.152-109.568-109.568-109.568zm-72.192 41.472L160.256 128h-87.04c1.536-24.576 11.776-46.592 27.136-62.976zm67.072 247.296H73.216V230.4h94.208v81.92zm0-92.16H73.216v-81.92h94.208v81.92zm0-99.84-59.392-62.464c16.384-13.824 36.864-22.528 59.392-24.064v86.528zM271.36 128h-86.528l59.904-62.976c15.872 16.384 25.6 38.4 26.624 62.976zm-93.696-94.208c22.528 1.024 43.52 9.728 59.392 24.064l-59.392 62.464V33.792zm94.208 278.528h-94.208V230.4h94.208v81.92zm0-92.16h-94.208v-81.92h94.208v81.92z" fill="#f39346" data-original="#000000"></path><path d="M265.728 37.376C241.664 13.312 208.384 0 172.544 0 100.352 0 44.032 52.224 40.448 121.856v217.6c0 3.072 2.048 5.12 5.12 5.12h253.44c3.072 0 5.12-2.048 5.12-5.12v-217.6c-1.536-31.232-15.36-61.952-38.4-84.48zM294.4 334.848H51.2v-212.48c2.56-64 55.296-112.128 121.344-112.128 56.832 0 118.272 41.984 121.856 112.128v212.48z" fill="#f39346" data-original="#000000"></path></g></svg>