<svg xmlns="http://www.w3.org/2000/svg" version="1.1" xmlns:xlink="http://www.w3.org/1999/xlink" xmlns:svgjs="http://svgjs.com/svgjs" width="512" height="512" x="0" y="0" viewBox="0 0 64 64" style="enable-background:new 0 0 512 512" xml:space="preserve" class=""><g><path d="M63 20h-7a2 2 0 1 1 1.886-2.667 1 1 0 1 0 1.886-.666A4 4 0 1 0 56 22h7a1 1 0 0 0 0-2ZM56 8h7a1 1 0 0 0 0-2h-7a2 2 0 1 1 1.886-2.667 1 1 0 1 0 1.886-.666A4 4 0 1 0 56 8ZM63 34h-7a2 2 0 1 1 1.886-2.667 1 1 0 1 0 1.886-.666A4 4 0 1 0 56 36h7a1 1 0 0 0 0-2ZM63 48h-7a2 2 0 1 1 1.886-2.667 1 1 0 0 0 1.886-.666A4 4 0 1 0 56 50h7a1 1 0 0 0 0-2ZM45 56a1 1 0 0 0 1-1V5a1 1 0 0 0-1-1h-3a1 1 0 0 0 0 2h2v48H27V6h11a1 1 0 0 0 0-2H7a1 1 0 0 0-1 1v50a1 1 0 0 0 1 1ZM8 6h17v48H8Z" fill="#f39346" data-original="#000000" class=""></path><path d="M51 58h-1V1a1 1 0 0 0-1-1H3a1 1 0 0 0-1 1v57H1a1 1 0 0 0-1 1v4a1 1 0 0 0 1 1h50a1 1 0 0 0 1-1v-4a1 1 0 0 0-1-1Zm-1 4H2v-2h7a1 1 0 0 0 0-2H4V2h44v56H13a1 1 0 0 0 0 2h37Z" fill="#f39346" data-original="#000000" class=""></path><path d="M22 40h-4V17h4a1 1 0 0 0 0-2h-4V9a1 1 0 0 0-2 0v6h-5a1 1 0 0 0 0 2h5v23h-5a1 1 0 0 0 0 2h5v9a1 1 0 0 0 2 0v-9h4a1 1 0 0 0 0-2ZM41 17a1 1 0 0 0 0-2h-5V9a1 1 0 0 0-2 0v6h-4a1 1 0 0 0 0 2h4v23h-4a1 1 0 0 0 0 2h4v9a1 1 0 0 0 2 0v-9h5a1 1 0 0 0 0-2h-5V17Z" fill="#f39346" data-original="#000000" class=""></path></g></svg>