<svg xmlns="http://www.w3.org/2000/svg" version="1.1" xmlns:xlink="http://www.w3.org/1999/xlink" xmlns:svgjs="http://svgjs.com/svgjs" width="512" height="512" x="0" y="0" viewBox="0 0 512 512" style="enable-background:new 0 0 512 512" xml:space="preserve" class=""><g><path d="M368 192a8 8 0 0 0 8-8v-16a120 120 0 0 0-240 0v16a8 8 0 0 0 8 8Zm-8-16h-83.307l68.174-61.976A103.379 103.379 0 0 1 360 168Zm-24.555-75.034L264 165.916V64.305a103.869 103.869 0 0 1 71.445 36.661ZM248 64.305v100.381L180.194 96.88A103.77 103.77 0 0 1 248 64.305ZM152 168a103.4 103.4 0 0 1 18.111-58.575L236.686 176H152ZM112.992 239.062l-56-7A8 8 0 0 0 48 240v80a8 8 0 0 0 8 8h56a8 8 0 0 0 8-8v-73a8 8 0 0 0-7.008-7.938ZM104 312H64v-62.938l40 5ZM112 344H56a8 8 0 0 0-8 8v80a8 8 0 0 0 10.07 7.728l56-15A8 8 0 0 0 120 417v-65a8 8 0 0 0-8-8Zm-8 66.86-40 10.715V360h40Z" fill="#f39346" data-original="#000000" class=""></path><path d="M493.27 193.98a8 8 0 0 0-6.327-1.91L408 202.6V168c0-83.813-68.187-152-152-152S104 84.187 104 168v34.6l-78.943-10.53A8 8 0 0 0 16 200v272a8 8 0 0 0 10.062 7.729L104 458.946V472a8 8 0 0 0 8 8h288a8 8 0 0 0 8-8v-13.054l77.938 20.783A8 8 0 0 0 496 472V200a8 8 0 0 0-2.73-6.02ZM120 168c0-74.99 61.009-136 136-136s136 61.01 136 136v36.729L367.47 208H144.53L120 204.729Zm240 264H255.22a41.237 41.237 0 0 0-24.963-30.258 41.235 41.235 0 0 0-34.8-25.6l-4.047-4.042a41.025 41.025 0 0 0-29.2-12.1H152v-32h208ZM152 224h208v32h-61.43a40.085 40.085 0 0 0-34.729 20.155l-2.355 4.122A32 32 0 0 0 209.021 312H152Zm72 80a16 16 0 0 1 29.143-9.124L243.358 312h-17.211a15.814 15.814 0 0 1-2.147-8Zm73.344-12.438L283.719 312h-21.933l15.946-27.907A24.054 24.054 0 0 1 298.57 272H328l-12 16h-12a8 8 0 0 0-6.656 3.562Zm5.6 20.438 5.333-8H320a8 8 0 0 0 6.4-3.2L348 272h12v40ZM152 376h10.208a25.133 25.133 0 0 1 17.888 7.41l6.247 6.247A8 8 0 0 0 192 392a25.265 25.265 0 0 1 24 17.3l.411 1.231a8 8 0 0 0 5.061 5.06l1.228.409a25.271 25.271 0 0 1 16.007 16H152ZM32 209.138 136 223v210.85L32 461.587ZM392 464H120v-9.321L145.047 448h221.906L392 454.679Zm88-2.413-104-27.733V223l104-13.866Z" fill="#f39346" data-original="#000000" class=""></path><path d="M400 328h56a8 8 0 0 0 8-8v-80a8 8 0 0 0-8.992-7.938l-56 7A8 8 0 0 0 392 247v73a8 8 0 0 0 8 8Zm8-73.938 40-5V312h-40ZM397.93 424.728l56 15A8 8 0 0 0 464 432v-80a8 8 0 0 0-8-8h-56a8 8 0 0 0-8 8v65a8 8 0 0 0 5.93 7.728ZM408 360h40v61.575l-40-10.715ZM224 344h-8a8 8 0 0 0 0 16h8a8 8 0 0 0 0-16ZM288 344h-32a8 8 0 0 0 0 16h32a8 8 0 0 0 0-16ZM272 376h-24a8 8 0 0 0 0 16h24a8 8 0 0 0 0-16ZM312 392h8a8 8 0 0 0 0-16h-8a8 8 0 0 0 0 16ZM320 360h8a8 8 0 0 0 0-16h-8a8 8 0 0 0 0 16Z" fill="#f39346" data-original="#000000" class=""></path></g></svg>