<svg xmlns="http://www.w3.org/2000/svg" version="1.1" xmlns:xlink="http://www.w3.org/1999/xlink" xmlns:svgjs="http://svgjs.com/svgjs" width="512" height="512" x="0" y="0" viewBox="0 0 66 66" style="enable-background:new 0 0 512 512" xml:space="preserve" class=""><g><path d="M64 56.53h-2.39V2.05c0-.48-.39-.88-.88-.88H5.27c-.48 0-.88.39-.88.88v54.48H2c-.48 0-.88.39-.88.88v6.54c0 .48.39.88.88.88h62c.48 0 .88-.39.88-.88v-6.54c0-.49-.4-.88-.88-.88zM6.14 2.93h53.72v53.6H6.14zm56.99 60.14H2.88v-4.79h60.25z" fill="#000000" data-original="#000000" class=""></path><path d="M57.52 5.68a.862.862 0 0 0-.35-.39l-.06-.03c-.02-.01-.05-.02-.07-.03-.1-.04-.2-.06-.3-.06H35c-.48 0-.88.39-.88.88V53.4c0 .48.39.88.88.88h21.73c.1 0 .2-.02.3-.06.02-.01.05-.02.07-.03s.04-.01.06-.03c.07-.04.12-.08.18-.14.07-.07.12-.16.17-.25.01-.02.02-.05.03-.07.04-.1.06-.2.06-.3V6.05c0-.11-.03-.21-.06-.3 0-.02-.01-.05-.02-.07zm-8.85 42.06v-7.71l7.19 2.05v9.81zm-5.74-24.86 3.99-1.14v7.11h-3.99zm0 7.72h3.99v7.11l-3.99-1.14zm5.74 0h7.19v9.65l-7.19-2.05zm0-1.75v-7.61l7.19-2.05v9.65h-7.19zm7.19-11.47-7.19 2.05v-7.71l7.19-4.15zm-8.94 2.55-3.99 1.14v-6.04l3.99-2.3zM42.93 38.4l3.99 1.14v7.2l-3.99-2.3zM35.88 6.93h17.59l-11.85 6.83a.89.89 0 0 0-.44.76v30.42c0 .31.17.6.44.76l11.85 6.83H35.88zM31 5.18H9.27c-.1 0-.2.02-.3.06-.03.01-.05.02-.08.03-.02.01-.04.01-.06.03-.07.03-.13.08-.18.13-.07.08-.13.16-.17.25-.01.02-.02.05-.03.07-.04.1-.06.2-.06.3V53.4c0 .11.03.21.06.3.01.02.02.05.03.07a.862.862 0 0 0 .35.39l.06.03c.02.01.05.02.07.03.1.04.2.06.3.06H31c.48 0 .88-.39.88-.88V6.05c0-.48-.4-.87-.88-.87zM19.08 30.6h3.99v5.97l-3.99 1.14zm-1.75 7.61-7.19 2.05V30.6h7.19zm5.74-9.36h-3.99v-7.11l3.99 1.14zm-5.74 0h-7.19V19.2l7.19 2.05zm-7.19 13.23 7.19-2.05v7.71l-7.19 4.15zm8.94-2.55 3.99-1.14v6.04l-3.99 2.3zm3.99-18.47-3.99-1.14v-7.2l3.99 2.3zm-5.74-1.63-7.19-2.05V7.57l7.19 4.15zm12.8 33.1H12.54l11.85-6.83a.89.89 0 0 0 .44-.76V14.52c0-.31-.17-.6-.44-.76L12.54 6.93h17.59z" fill="#000000" data-original="#000000" class=""></path></g></svg>