<svg xmlns="http://www.w3.org/2000/svg" version="1.1" xmlns:xlink="http://www.w3.org/1999/xlink" xmlns:svgjs="http://svgjs.com/svgjs" width="512" height="512" x="0" y="0" viewBox="0 0 512 512" style="enable-background:new 0 0 512 512" xml:space="preserve" class=""><g><path d="M504.5 447h-21V55h1a27.5 27.5 0 0 0 0-55h-457a27.5 27.5 0 0 0 0 55h1v392h-21a7.5 7.5 0 0 0-7.5 7.5v30A27.54 27.54 0 0 0 27.5 512h457a27.54 27.54 0 0 0 27.5-27.5v-30a7.5 7.5 0 0 0-7.5-7.5zm-36 0h-25V55h25zM139.28 55c1.12 15.36.89 55.67-28.35 82.47a7.5 7.5 0 0 0 10.14 11.06c33.48-30.7 34.55-74.88 33.27-93.53h30.33a326.92 326.92 0 0 1-5.67 61.35c-6.41 33.82-21.41 80.76-56.42 114.15H83.5V55zM83.5 270.5v-25H136a12.5 12.5 0 0 1 0 25zm0 15h5.71c5 11.44 18.25 45.56 17 85.26a7.5 7.5 0 0 0 7.25 7.74h.25a7.5 7.5 0 0 0 7.49-7.26c1.22-37.47-9.21-69.65-15.65-85.74h8c23.37 24.49 52.62 72 65.83 161.5H83.5zm111 161.5c-12-83.61-37.86-133-61-161.5h2.5a27.5 27.5 0 0 0 6.64-54.19c25-28.2 42.57-66.73 51.19-112.56A338.06 338.06 0 0 0 199.69 55h112.62a338.06 338.06 0 0 0 5.86 63.75c8.62 45.83 26.21 84.36 51.19 112.56A27.5 27.5 0 0 0 376 285.5h2.5c-23.17 28.54-49 77.89-61 161.5zm206.57-309.53C372 110.78 371.65 70.39 372.74 55h55.76v175.5h-39.1c-35-33.39-50-80.33-56.42-114.15A326.92 326.92 0 0 1 327.33 55h30.33c-1.28 18.65-.21 62.83 33.27 93.53a7.5 7.5 0 0 0 10.14-11.06zM376 270.5a12.5 12.5 0 0 1 0-25h52.5v25zm22.45 15h8c-6.44 16.09-16.87 48.27-15.65 85.74a7.5 7.5 0 0 0 7.49 7.26h.25a7.5 7.5 0 0 0 7.25-7.74c-1.29-39.7 11.93-73.82 17-85.26h5.71V447h-95.88c13.21-89.54 42.46-137 65.83-161.5zM15 27.5A12.52 12.52 0 0 1 27.5 15h457a12.5 12.5 0 0 1 0 25h-457A12.52 12.52 0 0 1 15 27.5zM43.5 55h25v392h-25zM497 484.5a12.52 12.52 0 0 1-12.5 12.5h-457A12.52 12.52 0 0 1 15 484.5V462h482z" fill="#f39346" data-original="#000000" class=""></path><path d="m293.53 202.86-85.67 85.67a7.5 7.5 0 0 0 10.61 10.61l85.67-85.67a7.5 7.5 0 0 0-10.61-10.61zM293.53 255.86l-32.67 32.67a7.5 7.5 0 0 0 10.61 10.61l32.67-32.67a7.5 7.5 0 0 0-10.61-10.61z" fill="#f39346" data-original="#000000" class=""></path></g></svg>