<svg xmlns="http://www.w3.org/2000/svg" version="1.1" xmlns:xlink="http://www.w3.org/1999/xlink" xmlns:svgjs="http://svgjs.com/svgjs" width="512" height="512" x="0" y="0" viewBox="0 0 512 512" style="enable-background:new 0 0 512 512" xml:space="preserve" class=""><g><path d="m507.042 98.917-110.933-51.2-.131-.031a50.359 50.359 0 0 0-3.308-.724l-.136-.028H119.467l-.133.027a8.655 8.655 0 0 0-1.64.331 8.624 8.624 0 0 0-1.671.395l-.131.031L4.958 98.917A8.54 8.54 0 0 0 0 106.667V422.4a8.528 8.528 0 0 0 6.025 8.158l110.933 34.133c.809.248 1.65.374 2.496.372l.012.003h273.067l.012-.003a8.442 8.442 0 0 0 2.496-.372l110.933-34.133a8.528 8.528 0 0 0 6.025-8.158V106.667a8.538 8.538 0 0 0-4.957-7.75zM110.933 444.978 17.067 416.1v-24.811l93.867 28.882v24.807zm0-42.667-93.867-28.882V154.795l93.867-43.324v290.84zm0-309.639-93.867 43.323v-23.87l93.867-43.321v23.868zM384 448H128v-25.6h256V448zm0-42.667H128V106.667h256v298.666zM384 89.6H128V64h256v25.6zm110.933 326.5-93.867 28.878v-24.806l93.867-28.882v24.81zm0-42.671-93.867 28.882v-290.84l93.867 43.324v218.634zm0-237.434-93.867-43.323V68.804l93.867 43.32v23.871z" fill="#f39346" data-original="#000000" class=""></path><path d="M153.6 388.267h204.8a8.53 8.53 0 0 0 8.534-8.534V140.8a8.53 8.53 0 0 0-8.534-8.534H153.6a8.53 8.53 0 0 0-8.534 8.534v238.933a8.53 8.53 0 0 0 8.534 8.534zm8.533-238.934h187.733V371.2H162.133V149.333zM40.154 364.258l42.667 13.133a8.661 8.661 0 0 0 2.512.375 8.528 8.528 0 0 0 8.533-8.533v-212.65a8.531 8.531 0 0 0-12.101-7.75L39.1 168.467a8.523 8.523 0 0 0-4.966 7.75V356.1a8.543 8.543 0 0 0 6.02 8.158zM51.2 181.683 76.8 169.9v187.775L51.2 349.8V181.683zM421.596 376.1a8.575 8.575 0 0 0 7.583 1.292l42.667-13.133a8.545 8.545 0 0 0 6.021-8.158V176.217a8.526 8.526 0 0 0-4.966-7.75l-42.667-19.633a8.532 8.532 0 0 0-12.101 7.75v212.65a8.546 8.546 0 0 0 3.463 6.866zM435.2 169.9l25.6 11.783V349.8l-25.6 7.875V169.9z" fill="#f39346" data-original="#000000" class=""></path><path d="M187.733 192a8.536 8.536 0 0 0 6.071-2.533l8.533-8.633a8.536 8.536 0 0 0-12.142-12l-8.533 8.633A8.535 8.535 0 0 0 187.733 192zM232.9 168.9l-51.2 51.2a8.532 8.532 0 1 0 12.066 12.066l51.2-51.2A8.533 8.533 0 0 0 232.9 168.9z" fill="#f39346" data-original="#000000" class=""></path></g></svg>