<svg xmlns="http://www.w3.org/2000/svg" version="1.1" xmlns:xlink="http://www.w3.org/1999/xlink" xmlns:svgjs="http://svgjs.com/svgjs" width="512" height="512" x="0" y="0" viewBox="0 0 512 512" style="enable-background:new 0 0 512 512" xml:space="preserve" class=""><g><path d="M490.136 459.868h-5.192V285.389a7.286 7.286 0 0 0-7.287-7.287 7.286 7.286 0 0 0-7.287 7.287v174.479h-24.92V46.78c0-3.852-2.99-6.997-6.774-7.261-.079-.006-.158-.009-.237-.012-.092-.003-.182-.014-.275-.014H73.836c-.088 0-.174.01-.262.013-.102.004-.204.007-.306.015a7.065 7.065 0 0 0-.623.077c-.065.011-.13.017-.194.03-.283.054-.56.124-.83.21-.018.006-.035.014-.053.019a7.123 7.123 0 0 0-.732.287c-.064.029-.126.06-.189.091a7.269 7.269 0 0 0-.588.321c-.039.023-.08.04-.118.065l-.061.044a7.4 7.4 0 0 0-.688.499l-.022.02a7.312 7.312 0 0 0-.581.546c-.058.06-.113.124-.169.186-.135.15-.263.305-.385.466-.049.065-.099.128-.145.194-.149.21-.288.427-.414.653l-.025.041a7.297 7.297 0 0 0-.365.774c-.02.05-.036.101-.055.151a7.303 7.303 0 0 0-.27.874 7.23 7.23 0 0 0-.121.627c-.011.076-.026.151-.035.227a7.325 7.325 0 0 0-.055.856v413.088H41.63V285.419a7.286 7.286 0 0 0-7.287-7.287 7.286 7.286 0 0 0-7.287 7.287v174.449h-5.192c-8.954 0-16.24 7.286-16.24 16.24v19.652c0 8.954 7.286 16.24 16.24 16.24h468.271c8.954 0 16.24-7.286 16.24-16.24v-19.652c.002-8.954-7.284-16.24-16.239-16.24zM430.851 58.303v401.565h-9.793l-91.652-34.261V106.435l101.445-48.132zm-25.072-4.236-83.355 39.549c-4.683 2.222-7.592 6.649-7.592 11.553v321.805c0 5.31 3.427 10.024 8.732 12.009l55.873 20.885h-246.9l55.874-20.886c5.304-1.983 8.731-6.696 8.731-12.008V105.17c0-4.903-2.908-9.33-7.591-11.553l-83.357-39.55h299.585zM81.122 58.303l101.445 48.132v319.174l-91.652 34.26h-9.793V58.303zm409.015 439.124H21.865a1.67 1.67 0 0 1-1.667-1.667v-19.652a1.67 1.67 0 0 1 1.667-1.667h468.271a1.67 1.67 0 0 1 1.667 1.667v19.652a1.668 1.668 0 0 1-1.666 1.667z" fill="#f39346" data-original="#000000" class=""></path><path d="M466.089 0H45.911C35.514 0 27.057 8.458 27.057 18.855v231.478a7.286 7.286 0 0 0 7.287 7.287 7.286 7.286 0 0 0 7.287-7.287V18.855a4.287 4.287 0 0 1 4.282-4.282h420.178a4.287 4.287 0 0 1 4.282 4.282v231.862a7.286 7.286 0 0 0 7.287 7.287 7.286 7.286 0 0 0 7.287-7.287V18.855C484.945 8.458 476.487 0 466.089 0z" fill="#f39346" data-original="#000000" class=""></path><path d="M407.125 93.03c-1.372 0-2.74.322-3.956.929l-50.884 25.453c-2.893 1.446-4.69 4.322-4.69 7.505v122.115c-.001 4.704 3.971 8.558 8.851 8.589l50.823.329h.062c4.842 0 8.78-3.824 8.78-8.526V101.739c0-4.802-4.03-8.709-8.986-8.709zm-5.589 150.31-39.37-.254V130.762l39.37-19.692v132.27zM407.245 268.248l-50.829.511c-4.864.052-8.822 3.909-8.822 8.597v128.362c-.001 3.44 2.102 6.501 5.366 7.803l50.878 20.212a8.848 8.848 0 0 0 3.282.625c4.957 0 8.99-3.91 8.99-8.715V276.768c0-4.698-3.935-8.52-8.865-8.52zm-5.709 148.889-39.37-15.64V283.275l39.37-.397v134.259zM155.555 268.759l-50.917-.511c-4.838 0-8.773 3.822-8.773 8.52v148.875c-.001 4.805 4.032 8.715 8.989 8.715a8.85 8.85 0 0 0 3.28-.625l50.884-20.213c3.258-1.296 5.362-4.359 5.362-7.801V277.356c0-4.688-3.958-8.545-8.825-8.597zm-5.748 132.74-39.37 15.639V282.88l39.37.396v118.223zM159.693 119.412l-50.888-25.453a8.895 8.895 0 0 0-3.955-.929c-4.955 0-8.986 3.907-8.986 8.709v147.686c0 4.701 3.939 8.526 8.779 8.526h.061l50.824-.329c4.881-.031 8.852-3.885 8.852-8.59V126.917c0-3.18-1.794-6.055-4.687-7.505zm-9.886 123.674-39.37.254V111.07l39.37 19.692v112.324z" fill="#f39346" data-original="#000000" class=""></path></g></svg>