<svg xmlns="http://www.w3.org/2000/svg" version="1.1" xmlns:xlink="http://www.w3.org/1999/xlink" xmlns:svgjs="http://svgjs.com/svgjs" width="512" height="512" x="0" y="0" viewBox="0 0 512 512" style="enable-background:new 0 0 512 512" xml:space="preserve" class=""><g><path d="M503.465 494.934h-8.531V25.602C494.934 11.46 483.473 0 469.332 0H42.668c-14.14 0-25.602 11.46-25.602 25.602v469.332h-8.53a8.533 8.533 0 1 0 0 17.066h494.929a8.534 8.534 0 1 0 0-17.066zM68.265 51.199h179.2v231.973a23.97 23.97 0 0 0-17.067 0V76.8a8.533 8.533 0 0 0-8.53-8.535h-128a8.534 8.534 0 0 0-8.536 8.535v213.332a8.534 8.534 0 0 0 8.535 8.535h121.035a23.97 23.97 0 0 0 0 17.066H93.867a8.533 8.533 0 0 0-8.535 8.532v145.066a8.534 8.534 0 0 0 8.535 8.535h128c4.711 0 8.531-3.82 8.531-8.535V331.23a23.97 23.97 0 0 0 17.067 0v163.704h-179.2zm375.47 0v443.735h-179.2V331.23a23.97 23.97 0 0 0 17.067 0v138.102a8.533 8.533 0 0 0 8.53 8.535h128a8.534 8.534 0 0 0 8.536-8.535V324.266c0-4.711-3.82-8.532-8.535-8.532H297.098a23.97 23.97 0 0 0 0-17.066h121.035a8.534 8.534 0 0 0 8.535-8.535V76.8a8.534 8.534 0 0 0-8.535-8.535h-128a8.533 8.533 0 0 0-8.531 8.535v206.37a23.97 23.97 0 0 0-17.067 0V51.2zM102.397 332.801h110.934v128H102.398zm110.934-223.488c-16.355 47.238-60.941 78.847-110.934 78.652V85.332h110.934zm-110.934 95.574c21.684-.567 76.579-7.434 110.934-58.453v135.168H102.398zm136.536 93.781c4.71 0 8.53 3.82 8.53 8.531a8.533 8.533 0 1 1-17.066 0c0-4.71 3.82-8.531 8.536-8.531zm59.734-17.066V146.434c34.355 51.02 89.258 57.886 110.934 58.453v76.715zm0 51.199h110.934v128H298.668zm110.934-144.836c-49.993.195-94.579-31.414-110.934-78.652V85.332h110.934zm-136.536 127.77a8.533 8.533 0 0 1-8.53-8.536 8.533 8.533 0 1 1 8.531 8.535zm187.735 179.199V42.668a8.534 8.534 0 0 0-8.535-8.535H59.734a8.534 8.534 0 0 0-8.535 8.535v452.266H34.133V25.602a8.534 8.534 0 0 1 8.535-8.536h426.664a8.534 8.534 0 0 1 8.535 8.536v469.332zm0 0" fill="#f39346" data-original="#000000" class=""></path></g></svg>