<svg xmlns="http://www.w3.org/2000/svg" version="1.1" xmlns:xlink="http://www.w3.org/1999/xlink" xmlns:svgjs="http://svgjs.com/svgjs" width="512" height="512" x="0" y="0" viewBox="0 0 60 60" style="enable-background:new 0 0 512 512" xml:space="preserve" class=""><g><g fill="#000" fill-rule="nonzero"><path d="M32 7H14.252L2.949.914A2 2 0 0 0 0 2.674v54.652a2 2 0 0 0 2.948 1.76L6.823 57h46.354l3.874 2.086A2 2 0 0 0 60 57.326V2.674a2 2 0 0 0-2.948-1.76L45.748 7zm22 22h-7v-7.829l7-2.03zm0 11.859-7-2.03V31h7zm-7 .052 7 2.03v7.776l-7-3.347zm7-23.852-7 2.03V12.63l7-3.347zM45 12v39H33v-1a3 3 0 0 0-6 0v1H15V9h12v1a3 3 0 0 0 6 0V9h12zM31 51h-2v-1a1 1 0 0 1 2 0zM6 31h7v7.829l-7 2.03zm0-11.859 7 2.03V29H6zm7-.052-7-2.03V9.283l7 3.347zM6 42.941l7-2.03v6.459l-7 3.347zM31 9v1a1 1 0 0 1-2 0V9zM2 57.326V2.674L13 8.6v1.816L5.431 6.794A1 1 0 0 0 4 7.7v44.6a1 1 0 0 0 1.431.9L13 49.587V51.4zM10.538 55l3.714-2h31.5l3.714 2zM58 2.674v54.652L47 51.4v-1.813l7.569 3.619A1 1 0 0 0 56 52.3V7.7a1 1 0 0 0-1.431-.9L47 10.413V8.6z" fill="#f39346" data-original="#000000" class=""></path><path d="M27 17a1 1 0 0 0-2 0c0 10.36 0 19.307-7.351 22.063a1 1 0 1 0 .702 1.874C27 37.693 27 27.642 27 17zM33 17c0 10.642 0 20.693 8.649 23.937a1 1 0 1 0 .702-1.874C35 36.307 35 27.36 35 17a1 1 0 0 0-2 0zM31 17a1 1 0 0 0-2 0v17a1 1 0 0 0 2 0z" fill="#f39346" data-original="#000000" class=""></path></g></g></svg>