<svg xmlns="http://www.w3.org/2000/svg" version="1.1" xmlns:xlink="http://www.w3.org/1999/xlink" xmlns:svgjs="http://svgjs.com/svgjs" width="512" height="512" x="0" y="0" viewBox="0 0 64 64" style="enable-background:new 0 0 512 512" xml:space="preserve" class=""><g><g data-name="tall window"><path d="M56 0H8a1 1 0 0 0-1 1v62a1 1 0 0 0 1 1h48a1 1 0 0 0 1-1V1a1 1 0 0 0-1-1Zm-1 62H9V2h46Z" fill="#f39346" data-original="#000000" class=""></path><path d="M11 22h42a1 1 0 0 0 1-1V4a1 1 0 0 0-1-1H11a1 1 0 0 0-1 1v17a1 1 0 0 0 1 1Zm1-17h40v15H12ZM11 61h19a1 1 0 0 0 1-1V24a1 1 0 0 0-1-1H11a1 1 0 0 0-1 1v36a1 1 0 0 0 1 1Zm1-2v-7.586l17-17v3.172l-8.707 8.707 1.414 1.414L29 40.414V59Zm17-34v6.586l-17 17v-3.172l9.707-9.707-1.414-1.414L12 42.586V25ZM53 23H34a1 1 0 0 0-1 1v36a1 1 0 0 0 1 1h19a1 1 0 0 0 1-1V24a1 1 0 0 0-1-1Zm-1 2v6.586l-17 17v-3.172l9.707-9.707-1.414-1.414L35 42.586V25ZM35 59v-7.586l17-17v3.172l-8.707 8.707 1.414 1.414L52 40.414V59Z" fill="#f39346" data-original="#000000" class=""></path></g></g></svg>