<svg xmlns="http://www.w3.org/2000/svg" version="1.1" xmlns:xlink="http://www.w3.org/1999/xlink" xmlns:svgjs="http://svgjs.com/svgjs" width="512" height="512" x="0" y="0" viewBox="0 0 64 64" style="enable-background:new 0 0 512 512" xml:space="preserve" class=""><g><g data-name="Ellipse window"><path d="M32 0a17.019 17.019 0 0 0-17 17v30a17 17 0 0 0 34 0V17A17.019 17.019 0 0 0 32 0zm15 47a15 15 0 0 1-30 0V17a15 15 0 0 1 30 0z" fill="#f39346" data-original="#000000" class=""></path><path d="M32 3a14.015 14.015 0 0 0-14 14v30a14 14 0 0 0 28 0V17A14.015 14.015 0 0 0 32 3zm-1 2.051V31H20V17A12.009 12.009 0 0 1 31 5.051zM20 47V33h11v25.949A12.009 12.009 0 0 1 20 47zm13 11.949V33h11v14a12.009 12.009 0 0 1-11 11.949zM44 31H33V5.051A12.009 12.009 0 0 1 44 17z" fill="#f39346" data-original="#000000" class=""></path><path d="m21.247 25.327 6.994-8.005 1.506 1.316-6.995 8.004zM21.245 20.329l6.994-8.005 1.506 1.316-6.995 8.004zM34.25 49.313l6.994-8.005 1.506 1.316-6.995 8.004zM34.248 44.315l6.994-8.005 1.506 1.316-6.995 8.004z" fill="#f39346" data-original="#000000" class=""></path></g></g></svg>