<svg xmlns="http://www.w3.org/2000/svg" version="1.1" xmlns:xlink="http://www.w3.org/1999/xlink" xmlns:svgjs="http://svgjs.com/svgjs" width="512" height="512" x="0" y="0" viewBox="0 0 64 64" style="enable-background:new 0 0 512 512" xml:space="preserve" class=""><g><path d="M28 26a1 1 0 0 0 1-1v-1a1 1 0 0 0-2 0v1a1 1 0 0 0 1 1ZM36 26a1 1 0 0 0 1-1v-1a1 1 0 0 0-2 0v1a1 1 0 0 0 1 1ZM32 34c2.243 0 4-1.318 4-3h-2c0 .408-.779 1-2 1s-2-.592-2-1h-2c0 1.682 1.757 3 4 3Z" fill="#f39346" data-original="#000000" class=""></path><path d="M56 48h-1v-4a1 1 0 0 0-1-1v-7.59l.71-.7a1.011 1.011 0 0 0 .28-.87l-1-6A1 1 0 0 0 53 27h-4a1 1 0 0 0-.99.84l-1 6a1.011 1.011 0 0 0 .28.87l.71.7V43a1 1 0 0 0-1 1v1.57a7.028 7.028 0 0 0-2.99-1.81l-2.16-.65A3.978 3.978 0 0 1 39 39.28v-1.8A10.988 10.988 0 0 0 43 29v-4h1a3.009 3.009 0 0 0 3-3v-1a3.009 3.009 0 0 0-3-3v-4a12 12 0 0 0-24 0v4a3.009 3.009 0 0 0-3 3v1a3.009 3.009 0 0 0 3 3h1v4a10.988 10.988 0 0 0 4 8.48v1.8a3.978 3.978 0 0 1-2.85 3.83l-2.16.65A7.028 7.028 0 0 0 17 45.57v-5.45a2.909 2.909 0 0 1 .89-2.11 6.991 6.991 0 0 0-2.56-11.6.99.99 0 0 0-1.33.94v5.03l-1 .5-1-.5v-5.04a.99.99 0 0 0-1.33-.94 6.99 6.99 0 0 0-2.61 11.56A3.035 3.035 0 0 1 9 40.13V48H8a3.009 3.009 0 0 0-3 3v10a1 1 0 0 0 1 1h6a4.924 4.924 0 0 0 3-1.03V61a1 1 0 0 0 1 1h32a1 1 0 0 0 1-1v-.03A4.924 4.924 0 0 0 52 62h6a1 1 0 0 0 1-1V51a3.009 3.009 0 0 0-3-3ZM43 20h1a1 1 0 0 1 1 1v1a1 1 0 0 1-1 1h-1ZM7 51a1 1 0 0 1 1-1h2v2H7Zm5 9H7v-6h5a3 3 0 0 1 0 6Zm3-19.88v12.91A4.924 4.924 0 0 0 12 52v-3a1 1 0 0 0-1-1v-7.87a5.04 5.04 0 0 0-1.53-3.59A4.988 4.988 0 0 1 10 29v4a.977.977 0 0 0 .55.89l2 1a.956.956 0 0 0 .9 0l2-1A.977.977 0 0 0 16 33v-4a5.025 5.025 0 0 1 2 4 4.936 4.936 0 0 1-1.51 3.57A4.929 4.929 0 0 0 15 40.12ZM18 60h-1v-9.54a4.985 4.985 0 0 1 1-3Zm3-37h-1a1 1 0 0 1-1-1v-1a1 1 0 0 1 1-1h1Zm1-9a10 10 0 0 1 20 0v3.2l-3.17-4.75A1 1 0 0 0 38 12H25a.988.988 0 0 0-.89.55L22 16.76Zm18.13 4H23.62l2-4h11.84ZM23 29v-9h18v9a9 9 0 0 1-18 0Zm9 17a12.03 12.03 0 0 1-6.9-2.11l-.02-.22A5.929 5.929 0 0 0 27 39.28v-.49a10.936 10.936 0 0 0 10 0v.49a5.929 5.929 0 0 0 1.92 4.39l-.02.22A12.03 12.03 0 0 1 32 46Zm6.62.39L38.1 51H25.9l-.52-4.61a14.415 14.415 0 0 0 13.24 0ZM40 60H24v-2h16Zm4 0h-2v-3a1 1 0 0 0-1-1H23a1 1 0 0 0-1 1v3h-2V45.9a5.594 5.594 0 0 1 .57-.22l2.16-.65c.13-.04.26-.11.39-.15a.647.647 0 0 1 .09.08l.8 7.15A.989.989 0 0 0 25 53h14a.989.989 0 0 0 .99-.89l.8-7.15a.647.647 0 0 1 .09-.08c.13.04.26.11.39.15l2.16.65a4.816 4.816 0 0 1 .57.22Zm3 0h-1V47.46a4.985 4.985 0 0 1 1 3Zm2.85-31h2.3l.78 4.66-.64.63A1.033 1.033 0 0 0 52 35v8h-2v-8a1.033 1.033 0 0 0-.29-.71l-.64-.63ZM49 45h4v3a1 1 0 0 0-1 1v3a4.924 4.924 0 0 0-3 1.03Zm8 15h-5a3 3 0 0 1 0-6h5Zm0-8h-3v-2h2a1 1 0 0 1 1 1Z" fill="#f39346" data-original="#000000" class=""></path></g></svg>